  0
SECTION
  2
HEADER
  9
$ACADVER
  1
AC1003
  9
$EXTMIN
 10
-9.37702693271092E-12
 20
2.54993721033778
  9
$EXTMAX
 10
2.08661417300937
 20
0.148362407328403
  9
$INSUNITS
 70
1
  9
$INSBASE
 10
1.0433070865
 20
1.34914980883309
999
Created with OMAX Layout for Windows. (www.omax.com) 5/28/2018
  0
ENDSEC
  0
SECTION
  2
TABLES
  0
TABLE
  2
LAYER
 70
    10
  0
LAYER
  2
0
 70
     0
 62
     7
  6
CONTINUOUS
  0
LAYER
  2
1
 70
     0
 62
     7
  6
CONTINUOUS
  0
LAYER
  2
2
 70
     0
 62
     7
  6
CONTINUOUS
  0
LAYER
  2
3
 70
     0
 62
     7
  6
CONTINUOUS
  0
LAYER
  2
4
 70
     0
 62
     7
  6
CONTINUOUS
  0
LAYER
  2
5
 70
     0
 62
     7
  6
CONTINUOUS
  0
LAYER
  2
6
 70
     0
 62
     7
  6
CONTINUOUS
  0
LAYER
  2
7
 70
     0
 62
     7
  6
CONTINUOUS
  0
LAYER
  2
8
 70
     0
 62
     7
  6
CONTINUOUS
  0
LAYER
  2
9
 70
     0
 62
     7
  6
CONTINUOUS
  0
LAYER
  2
10
 70
     0
 62
     7
  6
CONTINUOUS
  0
LAYER
  2
11
 70
     0
 62
     7
  6
CONTINUOUS
  0
LAYER
  2
12
 70
     0
 62
     7
  6
CONTINUOUS
  0
LAYER
  2
13
 70
     0
 62
     7
  6
CONTINUOUS
  0
LAYER
  2
14
 70
     0
 62
     7
  6
CONTINUOUS
  0
LAYER
  2
15
 70
     0
 62
     7
  6
CONTINUOUS
  0
LAYER
  2
16
 70
     0
 62
     7
  6
CONTINUOUS
  0
LAYER
  2
17
 70
     0
 62
     7
  6
CONTINUOUS
  0
LAYER
  2
18
 70
     0
 62
     7
  6
CONTINUOUS
  0
LAYER
  2
19
 70
     0
 62
     7
  6
CONTINUOUS
  0
LAYER
  2
20
 70
     0
 62
     7
  6
CONTINUOUS
  0
LAYER
  2
21
 70
     0
 62
     7
  6
CONTINUOUS
  0
LAYER
  2
22
 70
     0
 62
     7
  6
CONTINUOUS
  0
LAYER
  2
23
 70
     0
 62
     7
  6
CONTINUOUS
  0
LAYER
  2
24
 70
     0
 62
     7
  6
CONTINUOUS
  0
LAYER
  2
25
 70
     0
 62
     7
  6
CONTINUOUS
  0
LAYER
  2
26
 70
     0
 62
     7
  6
CONTINUOUS
  0
LAYER
  2
27
 70
     0
 62
     7
  6
CONTINUOUS
  0
LAYER
  2
28
 70
     0
 62
     7
  6
CONTINUOUS
  0
LAYER
  2
29
 70
     0
 62
     7
  6
CONTINUOUS
  0
LAYER
  2
30
 70
     0
 62
     7
  6
CONTINUOUS
  0
LAYER
  2
31
 70
     0
 62
     7
  6
CONTINUOUS
  0
ENDTAB
  0
ENDSEC
  0
SECTION
  2
ENTITIES
  0
LINE
  8
3
  6
CONTINUOUS
 62
3
 10
1.889763779
 20
2.54993721033778
 30
0.0
 11
0.196850393999999
 21
2.54993721031903
 31
0.0
  0
LINE
  8
3
  6
CONTINUOUS
 62
3
 10
-3.12350145748042E-12
 20
0.345212801363759
 30
0.0
 11
-9.3762775321693E-12
 21
2.35308681632841
 31
0.0
  0
LINE
  8
3
  6
CONTINUOUS
 62
3
 10
2.08661417300937
 20
0.345212801293053
 30
0.0
 11
2.08661417299063
 21
2.35308681629305
 31
0.0
  0
ARC
  8
3
  6
CONTINUOUS
 62
3
 10
0.551181102
 20
0.384582879319918
 30
0.0
 40
0.0629921260000002
 50
359.999999997425
 51
179.999999992279
  0
ARC
  8
3
  6
CONTINUOUS
 62
3
 10
1.771653543
 20
0.384582879325575
 30
0.0
 40
0.0629921260000002
 50
179.99999999228
 51
359.99999999228
  0
ARC
  8
3
  6
CONTINUOUS
 62
3
 10
0.551181102
 20
1.60505532032275
 30
0.0
 40
0.0629921260000002
 50
179.999999994853
 51
359.999999994854
  0
ARC
  8
3
  6
CONTINUOUS
 62
3
 10
1.771653543
 20
1.60505532031709
 30
0.0
 40
0.0629921260000002
 50
359.999999999997
 51
179.999999989707
  0
ARC
  8
3
  6
CONTINUOUS
 62
3
 10
1.16141732262099
 20
0.994819099770865
 30
0.0
 40
0.580708660991903
 50
249.749999966236
 51
67.500000013199
  0
ARC
  8
3
  6
CONTINUOUS
 62
3
 10
1.16141732234129
 20
0.994819099971842
 30
0.0
 40
0.58070866091326
 50
67.4999999801163
 51
202.500000008776
  0
ARC
  8
3
  6
CONTINUOUS
 62
3
 10
0.196850393986017
 20
0.345212801317541
 30
0.0
 40
0.19685039398914
 50
179.999999986547
 51
270.000000004068
  0
ARC
  8
3
  6
CONTINUOUS
 62
3
 10
1.88976377901177
 20
0.345212801326006
 30
0.0
 40
0.196850393997601
 50
269.999999996572
 51
359.999999990407
  0
ARC
  8
3
  6
CONTINUOUS
 62
3
 10
1.8897637790093
 20
2.35308681635645
 30
0.0
 40
0.196850393981329
 50
359.999999981545
 51
90.0000000027051
  0
ARC
  8
3
  6
CONTINUOUS
 62
3
 10
0.196850393983536
 20
2.35308681632612
 30
0.0
 40
0.196850393992914
 50
89.9999999952083
 51
179.999999999333
  0
ARC
  8
3
  6
CONTINUOUS
 62
3
 10
0.279527559010454
 20
2.31371673833316
 30
0.0
 40
0.084645669989546
 50
359.999999996781
 51
90.0000000070749
  0
ARC
  8
3
  6
CONTINUOUS
 62
3
 10
0.279527558989549
 20
2.31371673833315
 30
0.0
 40
0.0846456699895496
 50
89.9999999929249
 51
180.000000003215
  0
ARC
  8
3
  6
CONTINUOUS
 62
3
 10
0.279527558987562
 20
2.1562364233109
 30
0.0
 40
0.0846456699875623
 50
179.999999988153
 51
296.999999993628
  0
LINE
  8
3
  6
CONTINUOUS
 62
3
 10
0.194881889
 20
2.3137167383284
 30
0.0
 11
0.194881889
 21
2.1562364233284
 31
0.0
  0
LINE
  8
3
  6
CONTINUOUS
 62
3
 10
0.364173229
 20
2.3137167383284
 30
0.0
 11
0.3641732290057
 21
2.1562364233132
 31
0.0
  0
ARC
  8
3
  6
CONTINUOUS
 62
3
 10
0.870078740010454
 20
2.31371673833316
 30
0.0
 40
0.084645669989546
 50
359.999999996781
 51
90.0000000070749
  0
ARC
  8
3
  6
CONTINUOUS
 62
3
 10
0.870078739989549
 20
2.31371673833315
 30
0.0
 40
0.0846456699895496
 50
89.999999992925
 51
180.000000003215
  0
ARC
  8
3
  6
CONTINUOUS
 62
3
 10
0.870078739993886
 20
2.15623642331364
 30
0.0
 40
0.0846456699938857
 50
179.999999990008
 51
314.999999991009
  0
LINE
  8
3
  6
CONTINUOUS
 62
3
 10
0.78543307
 20
2.3137167383284
 30
0.0
 11
0.78543307
 21
2.1562364233284
 31
0.0
  0
LINE
  8
3
  6
CONTINUOUS
 62
3
 10
0.95472441
 20
2.3137167383284
 30
0.0
 11
0.954724410005701
 21
2.1562364233132
 31
0.0
  0
LINE
  8
3
  6
CONTINUOUS
 62
3
 10
0.549540682541667
 20
0.148362407328404
 30
0.0
 11
1.889763779
 21
0.148362407328404
 31
0.0
  0
LINE
  8
3
  6
CONTINUOUS
 62
3
 10
0.196850394
 20
0.148362407328404
 30
0.0
 11
0.549540682541667
 21
0.148362407328404
 31
0.0
  0
ARC
  8
3
  6
CONTINUOUS
 62
3
 10
0.551181101994344
 20
0.384582879322744
 30
0.0
 40
0.0629921259943438
 50
179.999999994852
 51
269.999999989707
  0
ARC
  8
3
  6
CONTINUOUS
 62
3
 10
0.551181102005658
 20
0.384582879322746
 30
0.0
 40
0.0629921259943437
 50
269.999999979417
 51
359.999999994852
  0
ARC
  8
3
  6
CONTINUOUS
 62
3
 10
1.16141732155326
 20
0.994819098845494
 30
0.0
 40
0.580708659754176
 50
202.499999935858
 51
249.750000033471
  0
ARC
  8
3
  6
CONTINUOUS
 62
3
 10
1.771653543
 20
0.384582879328408
 30
0.0
 40
0.0629921260000002
 50
359.999999989706
 51
162.999999995341
  0
ARC
  8
3
  6
CONTINUOUS
 62
3
 10
1.77165354296215
 20
0.384582879334063
 30
0.0
 40
0.0629921259621525
 50
162.999999990196
 51
180
  0
ARC
  8
3
  6
CONTINUOUS
 62
3
 10
1.77165354299434
 20
1.60505532032275
 30
0.0
 40
0.0629921259943438
 50
179.999999994852
 51
269.999999989707
  0
ARC
  8
3
  6
CONTINUOUS
 62
3
 10
1.77165354300566
 20
1.60505532032275
 30
0.0
 40
0.0629921259943438
 50
269.999999979418
 51
359.999999994853
  0
ARC
  8
3
  6
CONTINUOUS
 62
3
 10
0.870078740024052
 20
2.15623642332651
 30
0.0
 40
0.0846456699816502
 50
314.999999970414
 51
359.999999990994
  0
ARC
  8
3
  6
CONTINUOUS
 62
3
 10
0.551181102
 20
1.6050553203284
 30
0.0
 40
0.062992126
 50
359.999999989708
 51
72.999999999971
  0
ARC
  8
3
  6
CONTINUOUS
 62
3
 10
0.551181101995814
 20
1.60505532033406
 30
0.0
 40
0.0629921259958145
 50
72.9999999948259
 51
180.000000005144
  0
ARC
  8
3
  6
CONTINUOUS
 62
3
 10
0.279527559018105
 20
2.15623642332651
 30
0.0
 40
0.0846456699875969
 50
296.999999970414
 51
359.999999990993
  0
ENDSEC
  0
EOF
