  0
SECTION
  2
HEADER
  9
$ACADVER
  1
AC1003
  9
$EXTMIN
 10
-9.19290861280717E-16
 20
1.968503937
  9
$EXTMAX
 10
3.149606299
 20
0
  9
$INSUNITS
 70
1
  9
$INSBASE
 10
1.5748031495
 20
0.9842519685
999
Created with OMAX Layout for Windows. (www.omax.com) 5/28/2018
  0
ENDSEC
  0
SECTION
  2
TABLES
  0
TABLE
  2
LAYER
 70
    10
  0
LAYER
  2
0
 70
     0
 62
     7
  6
CONTINUOUS
  0
LAYER
  2
1
 70
     0
 62
     7
  6
CONTINUOUS
  0
LAYER
  2
2
 70
     0
 62
     7
  6
CONTINUOUS
  0
LAYER
  2
3
 70
     0
 62
     7
  6
CONTINUOUS
  0
LAYER
  2
4
 70
     0
 62
     7
  6
CONTINUOUS
  0
LAYER
  2
5
 70
     0
 62
     7
  6
CONTINUOUS
  0
LAYER
  2
6
 70
     0
 62
     7
  6
CONTINUOUS
  0
LAYER
  2
7
 70
     0
 62
     7
  6
CONTINUOUS
  0
LAYER
  2
8
 70
     0
 62
     7
  6
CONTINUOUS
  0
LAYER
  2
9
 70
     0
 62
     7
  6
CONTINUOUS
  0
LAYER
  2
10
 70
     0
 62
     7
  6
CONTINUOUS
  0
LAYER
  2
11
 70
     0
 62
     7
  6
CONTINUOUS
  0
LAYER
  2
12
 70
     0
 62
     7
  6
CONTINUOUS
  0
LAYER
  2
13
 70
     0
 62
     7
  6
CONTINUOUS
  0
LAYER
  2
14
 70
     0
 62
     7
  6
CONTINUOUS
  0
LAYER
  2
15
 70
     0
 62
     7
  6
CONTINUOUS
  0
LAYER
  2
16
 70
     0
 62
     7
  6
CONTINUOUS
  0
LAYER
  2
17
 70
     0
 62
     7
  6
CONTINUOUS
  0
LAYER
  2
18
 70
     0
 62
     7
  6
CONTINUOUS
  0
LAYER
  2
19
 70
     0
 62
     7
  6
CONTINUOUS
  0
LAYER
  2
20
 70
     0
 62
     7
  6
CONTINUOUS
  0
LAYER
  2
21
 70
     0
 62
     7
  6
CONTINUOUS
  0
LAYER
  2
22
 70
     0
 62
     7
  6
CONTINUOUS
  0
LAYER
  2
23
 70
     0
 62
     7
  6
CONTINUOUS
  0
LAYER
  2
24
 70
     0
 62
     7
  6
CONTINUOUS
  0
LAYER
  2
25
 70
     0
 62
     7
  6
CONTINUOUS
  0
LAYER
  2
26
 70
     0
 62
     7
  6
CONTINUOUS
  0
LAYER
  2
27
 70
     0
 62
     7
  6
CONTINUOUS
  0
LAYER
  2
28
 70
     0
 62
     7
  6
CONTINUOUS
  0
LAYER
  2
29
 70
     0
 62
     7
  6
CONTINUOUS
  0
LAYER
  2
30
 70
     0
 62
     7
  6
CONTINUOUS
  0
LAYER
  2
31
 70
     0
 62
     7
  6
CONTINUOUS
  0
ENDTAB
  0
ENDSEC
  0
SECTION
  2
ENTITIES
  0
LINE
  8
3
  6
CONTINUOUS
 62
3
 10
1.082677166
 20
9.8425197E-26
 30
0.0
 11
1.574803149
 21
0
 31
0.0
  0
LINE
  8
3
  6
CONTINUOUS
 62
3
 10
-9.19290861280717E-16
 20
1.476377953
 30
0.0
 11
-1.60466723664625E-16
 21
0.885826772
 31
0.0
  0
LINE
  8
3
  6
CONTINUOUS
 62
3
 10
3.149606299
 20
0.098425197
 30
0.0
 11
3.149606299
 21
0.492125984
 31
0.0
  0
LINE
  8
3
  6
CONTINUOUS
 62
3
 10
1.082677166
 20
1.968503937
 30
0.0
 11
1.476377952
 21
1.968503937
 31
0.0
  0
LINE
  8
3
  6
CONTINUOUS
 62
3
 10
0.984251969
 20
0.098425197
 30
0.0
 11
0.984251968999999
 21
0.688976378
 31
0.0
  0
LINE
  8
3
  6
CONTINUOUS
 62
3
 10
0.984251969000001
 20
1.87007874
 30
0.0
 11
0.984251969
 21
1.673228347
 31
0.0
  0
LINE
  8
3
  6
CONTINUOUS
 62
3
 10
0.885826772
 20
1.57480315
 30
0.0
 11
0.098425196999999
 21
1.57480315
 31
0.0
  0
LINE
  8
3
  6
CONTINUOUS
 62
3
 10
0.885826771999999
 20
0.787401575
 30
0.0
 11
0.0984251969999999
 21
0.787401575
 31
0.0
  0
LINE
  8
3
  6
CONTINUOUS
 62
3
 10
3.051181102
 20
1.20532121622419E-17
 30
0.0
 11
1.574803149
 21
0
 31
0.0
  0
LINE
  8
3
  6
CONTINUOUS
 62
3
 10
1.574803149
 20
0.688976378
 30
0.0
 11
1.574803149
 21
1.87007874
 31
0.0
  0
LINE
  8
3
  6
CONTINUOUS
 62
3
 10
3.051181102
 20
0.590551181
 30
0.0
 11
1.673228346
 21
0.590551181
 31
0.0
  0
ARC
  8
3
  6
CONTINUOUS
 62
3
 10
0.236220472
 20
1.181102362
 30
0.0
 40
0.062992126
 50
359.999999999999
 51
180
  0
ARC
  8
3
  6
CONTINUOUS
 62
3
 10
0.236220472
 20
1.181102362
 30
0.0
 40
0.062992126
 50
179.999999999999
 51
359.999999999999
  0
ARC
  8
3
  6
CONTINUOUS
 62
3
 10
0.787401575
 20
1.181102362
 30
0.0
 40
0.062992126
 50
359.999999999999
 51
180
  0
ARC
  8
3
  6
CONTINUOUS
 62
3
 10
0.787401575
 20
1.181102362
 30
0.0
 40
0.062992126
 50
179.999999999999
 51
359.999999999999
  0
ARC
  8
3
  6
CONTINUOUS
 62
3
 10
1.299212598
 20
1.751968504
 30
0.0
 40
0.0295275589999999
 50
359.999999999999
 51
180
  0
ARC
  8
3
  6
CONTINUOUS
 62
3
 10
1.299212598
 20
1.751968504
 30
0.0
 40
0.0295275589999999
 50
179.999999999999
 51
359.999999999999
  0
ARC
  8
3
  6
CONTINUOUS
 62
3
 10
1.397637795
 20
1.751968504
 30
0.0
 40
0.0295275589999999
 50
359.999999999999
 51
180
  0
ARC
  8
3
  6
CONTINUOUS
 62
3
 10
1.397637795
 20
1.751968504
 30
0.0
 40
0.0295275589999999
 50
179.999999999999
 51
359.999999999999
  0
ARC
  8
3
  6
CONTINUOUS
 62
3
 10
1.299212598
 20
1.377952756
 30
0.0
 40
0.0295275589999999
 50
359.999999999999
 51
180
  0
ARC
  8
3
  6
CONTINUOUS
 62
3
 10
1.299212598
 20
1.377952756
 30
0.0
 40
0.0295275589999999
 50
179.999999999999
 51
359.999999999999
  0
ARC
  8
3
  6
CONTINUOUS
 62
3
 10
1.397637795
 20
1.377952756
 30
0.0
 40
0.0295275589999999
 50
359.999999999999
 51
180
  0
ARC
  8
3
  6
CONTINUOUS
 62
3
 10
1.397637795
 20
1.377952756
 30
0.0
 40
0.0295275589999999
 50
179.999999999999
 51
359.999999999999
  0
ARC
  8
3
  6
CONTINUOUS
 62
3
 10
2.618110236
 20
0.118110236
 30
0.0
 40
0.0295275589999999
 50
359.999999999999
 51
180
  0
ARC
  8
3
  6
CONTINUOUS
 62
3
 10
2.618110236
 20
0.118110236
 30
0.0
 40
0.0295275589999999
 50
179.999999999999
 51
359.999999999999
  0
ARC
  8
3
  6
CONTINUOUS
 62
3
 10
2.992125984
 20
0.118110236
 30
0.0
 40
0.0295275589999999
 50
359.999999999999
 51
180
  0
ARC
  8
3
  6
CONTINUOUS
 62
3
 10
2.992125984
 20
0.118110236
 30
0.0
 40
0.0295275589999999
 50
179.999999999999
 51
359.999999999999
  0
ARC
  8
3
  6
CONTINUOUS
 62
3
 10
2.618110236
 20
0.216535433
 30
0.0
 40
0.0295275589999999
 50
359.999999999999
 51
180
  0
ARC
  8
3
  6
CONTINUOUS
 62
3
 10
2.618110236
 20
0.216535433
 30
0.0
 40
0.0295275589999999
 50
179.999999999999
 51
359.999999999999
  0
ARC
  8
3
  6
CONTINUOUS
 62
3
 10
2.992125984
 20
0.216535433
 30
0.0
 40
0.0295275589999999
 50
359.999999999999
 51
180
  0
ARC
  8
3
  6
CONTINUOUS
 62
3
 10
2.992125984
 20
0.216535433
 30
0.0
 40
0.0295275589999999
 50
179.999999999999
 51
359.999999999999
  0
ARC
  8
3
  6
CONTINUOUS
 62
3
 10
0.0984251969999998
 20
0.885826771999999
 30
0.0
 40
0.098425197
 50
179.999999999999
 51
269.999999999999
  0
ARC
  8
3
  6
CONTINUOUS
 62
3
 10
0.0984251969999986
 20
1.476377953
 30
0.0
 40
0.0984251969999999
 50
89.9999999999998
 51
179.999999999999
  0
ARC
  8
3
  6
CONTINUOUS
 62
3
 10
0.885826772
 20
1.673228347
 30
0.0
 40
0.098425197
 50
270
 51
2.04400334450929E-13
  0
ARC
  8
3
  6
CONTINUOUS
 62
3
 10
1.476377952
 20
1.87007874
 30
0.0
 40
0.0984251970000001
 50
359.999999999999
 51
89.9999999999998
  0
ARC
  8
3
  6
CONTINUOUS
 62
3
 10
1.673228346
 20
0.688976378
 30
0.0
 40
0.098425197
 50
180
 51
270
  0
ARC
  8
3
  6
CONTINUOUS
 62
3
 10
0.885826771999999
 20
0.688976378000001
 30
0.0
 40
0.098425197
 50
359.999999999999
 51
89.9999999999998
  0
ARC
  8
3
  6
CONTINUOUS
 62
3
 10
1.082677166
 20
0.0984251970000001
 30
0.0
 40
0.0984251970000001
 50
180
 51
270
  0
ARC
  8
3
  6
CONTINUOUS
 62
3
 10
3.051181102
 20
0.492125984000001
 30
0.0
 40
0.098425197
 50
359.999999999999
 51
89.9999999999998
  0
ARC
  8
3
  6
CONTINUOUS
 62
3
 10
3.051181102
 20
0.098425197
 30
0.0
 40
0.098425197
 50
269.999999999999
 51
359.999999999999
  0
ARC
  8
3
  6
CONTINUOUS
 62
3
 10
1.082677166
 20
1.87007874
 30
0.0
 40
0.0984251969999999
 50
89.9999999999993
 51
180
  0
ENDSEC
  0
EOF
