  0
SECTION
  2
HEADER
  9
$ACADVER
  1
AC1003
  9
$EXTMIN
 10
-1.48421728539564E-15
 20
1.653543307
  9
$EXTMAX
 10
5.984251969
 20
-1.27208075167083E-15
  9
$INSUNITS
 70
1
  9
$INSBASE
 10
2.9921259845
 20
0.826771653499999
999
Created with OMAX Layout for Windows. (www.omax.com) 5/28/2018
  0
ENDSEC
  0
SECTION
  2
TABLES
  0
TABLE
  2
LAYER
 70
    10
  0
LAYER
  2
0
 70
     0
 62
     7
  6
CONTINUOUS
  0
LAYER
  2
1
 70
     0
 62
     7
  6
CONTINUOUS
  0
LAYER
  2
2
 70
     0
 62
     7
  6
CONTINUOUS
  0
LAYER
  2
3
 70
     0
 62
     7
  6
CONTINUOUS
  0
LAYER
  2
4
 70
     0
 62
     7
  6
CONTINUOUS
  0
LAYER
  2
5
 70
     0
 62
     7
  6
CONTINUOUS
  0
LAYER
  2
6
 70
     0
 62
     7
  6
CONTINUOUS
  0
LAYER
  2
7
 70
     0
 62
     7
  6
CONTINUOUS
  0
LAYER
  2
8
 70
     0
 62
     7
  6
CONTINUOUS
  0
LAYER
  2
9
 70
     0
 62
     7
  6
CONTINUOUS
  0
LAYER
  2
10
 70
     0
 62
     7
  6
CONTINUOUS
  0
LAYER
  2
11
 70
     0
 62
     7
  6
CONTINUOUS
  0
LAYER
  2
12
 70
     0
 62
     7
  6
CONTINUOUS
  0
LAYER
  2
13
 70
     0
 62
     7
  6
CONTINUOUS
  0
LAYER
  2
14
 70
     0
 62
     7
  6
CONTINUOUS
  0
LAYER
  2
15
 70
     0
 62
     7
  6
CONTINUOUS
  0
LAYER
  2
16
 70
     0
 62
     7
  6
CONTINUOUS
  0
LAYER
  2
17
 70
     0
 62
     7
  6
CONTINUOUS
  0
LAYER
  2
18
 70
     0
 62
     7
  6
CONTINUOUS
  0
LAYER
  2
19
 70
     0
 62
     7
  6
CONTINUOUS
  0
LAYER
  2
20
 70
     0
 62
     7
  6
CONTINUOUS
  0
LAYER
  2
21
 70
     0
 62
     7
  6
CONTINUOUS
  0
LAYER
  2
22
 70
     0
 62
     7
  6
CONTINUOUS
  0
LAYER
  2
23
 70
     0
 62
     7
  6
CONTINUOUS
  0
LAYER
  2
24
 70
     0
 62
     7
  6
CONTINUOUS
  0
LAYER
  2
25
 70
     0
 62
     7
  6
CONTINUOUS
  0
LAYER
  2
26
 70
     0
 62
     7
  6
CONTINUOUS
  0
LAYER
  2
27
 70
     0
 62
     7
  6
CONTINUOUS
  0
LAYER
  2
28
 70
     0
 62
     7
  6
CONTINUOUS
  0
LAYER
  2
29
 70
     0
 62
     7
  6
CONTINUOUS
  0
LAYER
  2
30
 70
     0
 62
     7
  6
CONTINUOUS
  0
LAYER
  2
31
 70
     0
 62
     7
  6
CONTINUOUS
  0
ENDTAB
  0
ENDSEC
  0
SECTION
  2
ENTITIES
  0
LINE
  8
3
  6
CONTINUOUS
 62
3
 10
2.362204725
 20
-1.27208075167083E-15
 30
0.0
 11
3.622047244
 21
-2.41064242877456E-16
 31
0.0
  0
LINE
  8
3
  6
CONTINUOUS
 62
3
 10
-1.48421728539564E-15
 20
1.023622047
 30
0.0
 11
-1.11207555926669E-16
 21
0.62992126
 31
0.0
  0
LINE
  8
3
  6
CONTINUOUS
 62
3
 10
5.984251969
 20
0.62992126
 30
0.0
 11
5.984251969
 21
1.023622047
 31
0.0
  0
LINE
  8
3
  6
CONTINUOUS
 62
3
 10
1.968503937
 20
0.433070866
 30
0.0
 11
0.196850394
 21
0.433070866
 31
0.0
  0
LINE
  8
3
  6
CONTINUOUS
 62
3
 10
2.165354331
 20
0.236220472
 30
0.0
 11
2.165354331
 21
0.196850393999999
 31
0.0
  0
LINE
  8
3
  6
CONTINUOUS
 62
3
 10
4.015748032
 20
0.433070865999999
 30
0.0
 11
5.787401575
 21
0.433070866
 31
0.0
  0
LINE
  8
3
  6
CONTINUOUS
 62
3
 10
3.818897638
 20
0.196850394
 30
0.0
 11
3.818897638
 21
0.236220471999999
 31
0.0
  0
LINE
  8
3
  6
CONTINUOUS
 62
3
 10
1.968503937
 20
1.220472441
 30
0.0
 11
0.196850393999999
 21
1.220472441
 31
0.0
  0
LINE
  8
3
  6
CONTINUOUS
 62
3
 10
5.787401575
 20
1.220472441
 30
0.0
 11
4.015748032
 21
1.220472441
 31
0.0
  0
LINE
  8
3
  6
CONTINUOUS
 62
3
 10
2.165354331
 20
1.456692913
 30
0.0
 11
2.165354331
 21
1.417322835
 31
0.0
  0
LINE
  8
3
  6
CONTINUOUS
 62
3
 10
3.818897638
 20
1.417322835
 30
0.0
 11
3.818897638
 21
1.456692913
 31
0.0
  0
ARC
  8
3
  6
CONTINUOUS
 62
3
 10
0.433070866
 20
0.826771654000002
 30
0.0
 40
0.157480315
 50
359.999999999999
 51
180
  0
ARC
  8
3
  6
CONTINUOUS
 62
3
 10
0.433070866
 20
0.826771653999998
 30
0.0
 40
0.157480315
 50
179.999999999999
 51
359.999999999999
  0
ARC
  8
3
  6
CONTINUOUS
 62
3
 10
1.220472441
 20
0.826771654000001
 30
0.0
 40
0.078740158
 50
359.999999999999
 51
180
  0
ARC
  8
3
  6
CONTINUOUS
 62
3
 10
1.220472441
 20
0.826771653999999
 30
0.0
 40
0.078740158
 50
179.999999999999
 51
359.999999999999
  0
ARC
  8
3
  6
CONTINUOUS
 62
3
 10
2.381889764
 20
0.216535433000001
 30
0.0
 40
0.0688976380000002
 50
359.999999999999
 51
180
  0
ARC
  8
3
  6
CONTINUOUS
 62
3
 10
2.381889764
 20
0.216535432999999
 30
0.0
 40
0.0688976380000002
 50
179.999999999999
 51
359.999999999999
  0
ARC
  8
3
  6
CONTINUOUS
 62
3
 10
3.602362205
 20
0.216535433000001
 30
0.0
 40
0.0688976380000002
 50
359.999999999999
 51
180
  0
ARC
  8
3
  6
CONTINUOUS
 62
3
 10
3.602362205
 20
0.216535432999999
 30
0.0
 40
0.0688976380000002
 50
179.999999999999
 51
359.999999999999
  0
ARC
  8
3
  6
CONTINUOUS
 62
3
 10
2.381889764
 20
1.437007874
 30
0.0
 40
0.0688976380000002
 50
359.999999999999
 51
180
  0
ARC
  8
3
  6
CONTINUOUS
 62
3
 10
2.381889764
 20
1.437007874
 30
0.0
 40
0.0688976380000002
 50
179.999999999999
 51
359.999999999999
  0
ARC
  8
3
  6
CONTINUOUS
 62
3
 10
3.602362205
 20
1.437007874
 30
0.0
 40
0.0688976380000002
 50
359.999999999999
 51
180
  0
ARC
  8
3
  6
CONTINUOUS
 62
3
 10
3.602362205
 20
1.437007874
 30
0.0
 40
0.0688976380000002
 50
179.999999999999
 51
359.999999999999
  0
ARC
  8
3
  6
CONTINUOUS
 62
3
 10
5.551181102
 20
0.826771654000001
 30
0.0
 40
0.157480315
 50
359.999999999999
 51
180
  0
ARC
  8
3
  6
CONTINUOUS
 62
3
 10
5.551181102
 20
0.826771653999998
 30
0.0
 40
0.157480315
 50
179.999999999999
 51
359.999999999999
  0
ARC
  8
3
  6
CONTINUOUS
 62
3
 10
4.763779528
 20
0.826771654000001
 30
0.0
 40
0.0787401580000004
 50
359.999999999999
 51
180
  0
ARC
  8
3
  6
CONTINUOUS
 62
3
 10
4.763779528
 20
0.826771653999999
 30
0.0
 40
0.0787401580000004
 50
179.999999999999
 51
359.999999999999
  0
ARC
  8
3
  6
CONTINUOUS
 62
3
 10
0.196850394
 20
0.629921259999998
 30
0.0
 40
0.196850394
 50
179.999999999999
 51
269.999999999999
  0
ARC
  8
3
  6
CONTINUOUS
 62
3
 10
0.196850393999998
 20
1.023622047
 30
0.0
 40
0.196850394
 50
89.9999999999998
 51
179.999999999999
  0
ARC
  8
3
  6
CONTINUOUS
 62
3
 10
1.968503937
 20
1.417322835
 30
0.0
 40
0.196850394
 50
270
 51
1.53511459547513E-13
  0
ARC
  8
3
  6
CONTINUOUS
 62
3
 10
2.362204725
 20
1.456692913
 30
0.0
 40
0.196850394
 50
89.9999999999999
 51
180
  0
ARC
  8
3
  6
CONTINUOUS
 62
3
 10
3.622047244
 20
1.456692913
 30
0.0
 40
0.196850394
 50
359.999999999999
 51
89.9999999999996
  0
ARC
  8
3
  6
CONTINUOUS
 62
3
 10
4.015748032
 20
1.417322835
 30
0.0
 40
0.196850394
 50
180
 51
270
  0
ARC
  8
3
  6
CONTINUOUS
 62
3
 10
5.787401575
 20
1.023622047
 30
0.0
 40
0.196850394
 50
359.999999999999
 51
89.9999999999998
  0
ARC
  8
3
  6
CONTINUOUS
 62
3
 10
5.787401575
 20
0.62992126
 30
0.0
 40
0.196850394
 50
269.999999999999
 51
359.999999999999
  0
ARC
  8
3
  6
CONTINUOUS
 62
3
 10
4.015748032
 20
0.236220471999997
 30
0.0
 40
0.196850394
 50
89.9999999999994
 51
180
  0
ARC
  8
3
  6
CONTINUOUS
 62
3
 10
3.622047244
 20
0.196850394
 30
0.0
 40
0.196850394
 50
269.999999999999
 51
359.999999999999
  0
ARC
  8
3
  6
CONTINUOUS
 62
3
 10
2.362204725
 20
0.196850393999997
 30
0.0
 40
0.196850394
 50
179.999999999999
 51
269.999999999999
  0
ARC
  8
3
  6
CONTINUOUS
 62
3
 10
1.968503937
 20
0.236220472000002
 30
0.0
 40
0.196850394
 50
359.999999999999
 51
89.9999999999998
  0
LINE
  8
3
  6
CONTINUOUS
 62
3
 10
2.362204725
 20
1.653543307
 30
0.0
 11
3.622047244
 21
1.653543307
 31
0.0
  0
ENDSEC
  0
EOF
